<?xml version="1.0" encoding="UTF-8"?>
<svg version="1.1" xmlns="http://www.w3.org/2000/svg" width="225" height="225">
<path d="M0 0 C74.25 0 148.5 0 225 0 C225 74.25 225 148.5 225 225 C150.75 225 76.5 225 0 225 C0 150.75 0 76.5 0 0 Z " fill="#FFFFFF" transform="translate(0,0)"/>
<path d="M0 0 C30.03 0 60.06 0 91 0 C91 30.03 91 60.06 91 91 C76.48 91 61.96 91 47 91 C47 105.52 47 120.04 47 135 C16.97 135 -13.06 135 -44 135 C-44 104.97 -44 74.94 -44 44 C-29.48 44 -14.96 44 0 44 C0 29.48 0 14.96 0 0 Z " fill="#F89B24" transform="translate(89,45)"/>
<path d="M0 0 C10.56 0 21.12 0 32 0 C32 11.55 32 23.1 32 35 C43.55 35 55.1 35 67 35 C67 45.56 67 56.12 67 67 C44.89 67 22.78 67 0 67 C0 44.89 0 22.78 0 0 Z " fill="#FEFEFE" transform="translate(57,101)"/>
<path d="M0 0 C22.11 0 44.22 0 67 0 C67 22.11 67 44.22 67 67 C56.44 67 45.88 67 35 67 C35 55.45 35 43.9 35 32 C23.45 32 11.9 32 0 32 C0 21.44 0 10.88 0 0 Z " fill="#FFFEFE" transform="translate(101,57)"/>
<path d="M0 0 C7.59 0 15.18 0 23 0 C23 7.59 23 15.18 23 23 C15.41 23 7.82 23 0 23 C0 15.41 0 7.82 0 0 Z " fill="#FEFEFD" transform="translate(101,101)"/>
</svg>
